<mxfile host="app.diagrams.net" modified="2024-07-12T00:56:28.095Z" agent="Mozilla/5.0 (Windows NT 10.0; Win64; x64) AppleWebKit/537.36 (KHTML, like Gecko) Chrome/122.0.0.0 Safari/537.36" etag="NnNJSNyRjq5DDOoDAMkd" version="24.6.4" type="device">
  <diagram name="Page-1" id="YuSDekT6-vQm5-zqVx2D">
    <mxGraphModel dx="2537" dy="908" grid="1" gridSize="10" guides="1" tooltips="1" connect="1" arrows="1" fold="1" page="1" pageScale="1" pageWidth="850" pageHeight="1100" math="0" shadow="0">
      <root>
        <mxCell id="0" />
        <mxCell id="1" parent="0" />
        <mxCell id="mm4bTncKj626fs8VlmGL-5" value="Staff" style="shape=umlActor;verticalLabelPosition=bottom;verticalAlign=top;html=1;outlineConnect=0;" vertex="1" parent="1">
          <mxGeometry x="-170" y="180" width="30" height="60" as="geometry" />
        </mxCell>
        <mxCell id="mm4bTncKj626fs8VlmGL-6" value="Client" style="shape=umlActor;verticalLabelPosition=bottom;verticalAlign=top;html=1;outlineConnect=0;" vertex="1" parent="1">
          <mxGeometry x="-200" y="630" width="30" height="60" as="geometry" />
        </mxCell>
        <mxCell id="mm4bTncKj626fs8VlmGL-7" value="Admin" style="shape=umlActor;verticalLabelPosition=bottom;verticalAlign=top;html=1;outlineConnect=0;" vertex="1" parent="1">
          <mxGeometry x="-190" y="1100" width="30" height="60" as="geometry" />
        </mxCell>
        <mxCell id="mm4bTncKj626fs8VlmGL-8" value="" style="rounded=0;whiteSpace=wrap;html=1;" vertex="1" parent="1">
          <mxGeometry x="-95" y="70" width="270" height="1420" as="geometry" />
        </mxCell>
        <mxCell id="mm4bTncKj626fs8VlmGL-13" value="" style="ellipse;whiteSpace=wrap;html=1;" vertex="1" parent="1">
          <mxGeometry x="-20" y="110" width="120" height="80" as="geometry" />
        </mxCell>
        <mxCell id="mm4bTncKj626fs8VlmGL-14" value="" style="ellipse;whiteSpace=wrap;html=1;" vertex="1" parent="1">
          <mxGeometry x="-20" y="230" width="120" height="80" as="geometry" />
        </mxCell>
        <mxCell id="mm4bTncKj626fs8VlmGL-15" value="" style="ellipse;whiteSpace=wrap;html=1;" vertex="1" parent="1">
          <mxGeometry x="-20" y="340" width="120" height="80" as="geometry" />
        </mxCell>
        <mxCell id="mm4bTncKj626fs8VlmGL-16" value="" style="ellipse;whiteSpace=wrap;html=1;" vertex="1" parent="1">
          <mxGeometry x="-20" y="470" width="120" height="80" as="geometry" />
        </mxCell>
        <mxCell id="mm4bTncKj626fs8VlmGL-17" value="" style="ellipse;whiteSpace=wrap;html=1;" vertex="1" parent="1">
          <mxGeometry x="-20" y="610" width="120" height="80" as="geometry" />
        </mxCell>
        <mxCell id="mm4bTncKj626fs8VlmGL-21" value="" style="ellipse;whiteSpace=wrap;html=1;" vertex="1" parent="1">
          <mxGeometry x="-20" y="740" width="120" height="80" as="geometry" />
        </mxCell>
        <mxCell id="mm4bTncKj626fs8VlmGL-22" value="" style="ellipse;whiteSpace=wrap;html=1;" vertex="1" parent="1">
          <mxGeometry x="-20" y="890" width="120" height="80" as="geometry" />
        </mxCell>
        <mxCell id="mm4bTncKj626fs8VlmGL-23" value="" style="ellipse;whiteSpace=wrap;html=1;" vertex="1" parent="1">
          <mxGeometry x="-30" y="1040" width="120" height="80" as="geometry" />
        </mxCell>
        <mxCell id="mm4bTncKj626fs8VlmGL-24" value="" style="ellipse;whiteSpace=wrap;html=1;" vertex="1" parent="1">
          <mxGeometry x="-30" y="1200" width="120" height="80" as="geometry" />
        </mxCell>
        <mxCell id="mm4bTncKj626fs8VlmGL-25" value="" style="ellipse;whiteSpace=wrap;html=1;" vertex="1" parent="1">
          <mxGeometry x="-30" y="1370" width="120" height="80" as="geometry" />
        </mxCell>
        <mxCell id="mm4bTncKj626fs8VlmGL-35" value="Use case Diagram" style="text;html=1;align=center;verticalAlign=middle;whiteSpace=wrap;rounded=0;" vertex="1" parent="1">
          <mxGeometry y="40" width="130" height="30" as="geometry" />
        </mxCell>
        <mxCell id="mm4bTncKj626fs8VlmGL-36" value="Manage Emergency&lt;div&gt;Contacts&lt;/div&gt;" style="text;html=1;align=center;verticalAlign=middle;whiteSpace=wrap;rounded=0;" vertex="1" parent="1">
          <mxGeometry x="10" y="135" width="60" height="30" as="geometry" />
        </mxCell>
        <mxCell id="mm4bTncKj626fs8VlmGL-37" value="Manage Vaccination Records&lt;div&gt;&lt;br&gt;&lt;/div&gt;" style="text;html=1;align=center;verticalAlign=middle;whiteSpace=wrap;rounded=0;" vertex="1" parent="1">
          <mxGeometry x="10" y="255" width="60" height="30" as="geometry" />
        </mxCell>
        <mxCell id="mm4bTncKj626fs8VlmGL-38" value="Pet Check In and Out" style="text;html=1;align=center;verticalAlign=middle;whiteSpace=wrap;rounded=0;" vertex="1" parent="1">
          <mxGeometry x="10" y="365" width="60" height="30" as="geometry" />
        </mxCell>
        <mxCell id="mm4bTncKj626fs8VlmGL-39" value="Pet Grooming&amp;nbsp;&lt;br&gt;Services" style="text;html=1;align=center;verticalAlign=middle;whiteSpace=wrap;rounded=0;" vertex="1" parent="1">
          <mxGeometry x="10" y="495" width="60" height="30" as="geometry" />
        </mxCell>
        <mxCell id="mm4bTncKj626fs8VlmGL-40" value="Manage Pet Activities&amp;nbsp;" style="text;html=1;align=center;verticalAlign=middle;whiteSpace=wrap;rounded=0;" vertex="1" parent="1">
          <mxGeometry x="10" y="635" width="60" height="30" as="geometry" />
        </mxCell>
        <mxCell id="mm4bTncKj626fs8VlmGL-41" value="Customer Feedback and Reviews&lt;div&gt;&lt;br&gt;&lt;/div&gt;" style="text;html=1;align=center;verticalAlign=middle;whiteSpace=wrap;rounded=0;" vertex="1" parent="1">
          <mxGeometry x="10" y="770" width="60" height="30" as="geometry" />
        </mxCell>
        <mxCell id="mm4bTncKj626fs8VlmGL-42" value="Generate Reports" style="text;html=1;align=center;verticalAlign=middle;whiteSpace=wrap;rounded=0;" vertex="1" parent="1">
          <mxGeometry x="10" y="915" width="60" height="30" as="geometry" />
        </mxCell>
        <mxCell id="mm4bTncKj626fs8VlmGL-43" value="Send Notifications" style="text;html=1;align=center;verticalAlign=middle;whiteSpace=wrap;rounded=0;" vertex="1" parent="1">
          <mxGeometry y="1225" width="60" height="30" as="geometry" />
        </mxCell>
        <mxCell id="mm4bTncKj626fs8VlmGL-44" value="Manage dietary restrictions" style="text;html=1;align=center;verticalAlign=middle;whiteSpace=wrap;rounded=0;" vertex="1" parent="1">
          <mxGeometry y="1065" width="60" height="30" as="geometry" />
        </mxCell>
        <mxCell id="mm4bTncKj626fs8VlmGL-45" value="Manage Loyalty Programs" style="text;html=1;align=center;verticalAlign=middle;whiteSpace=wrap;rounded=0;" vertex="1" parent="1">
          <mxGeometry y="1395" width="60" height="30" as="geometry" />
        </mxCell>
        <mxCell id="mm4bTncKj626fs8VlmGL-51" value="" style="endArrow=classic;html=1;rounded=0;exitX=1;exitY=0.3333333333333333;exitDx=0;exitDy=0;exitPerimeter=0;" edge="1" parent="1" source="mm4bTncKj626fs8VlmGL-5" target="mm4bTncKj626fs8VlmGL-13">
          <mxGeometry width="50" height="50" relative="1" as="geometry">
            <mxPoint x="-120" y="200" as="sourcePoint" />
            <mxPoint x="-70" y="150" as="targetPoint" />
          </mxGeometry>
        </mxCell>
        <mxCell id="mm4bTncKj626fs8VlmGL-53" value="" style="endArrow=classic;html=1;rounded=0;" edge="1" parent="1" target="mm4bTncKj626fs8VlmGL-14">
          <mxGeometry width="50" height="50" relative="1" as="geometry">
            <mxPoint x="-140" y="200" as="sourcePoint" />
            <mxPoint x="-90" y="150" as="targetPoint" />
          </mxGeometry>
        </mxCell>
        <mxCell id="mm4bTncKj626fs8VlmGL-55" value="" style="endArrow=classic;html=1;rounded=0;entryX=0;entryY=0;entryDx=0;entryDy=0;" edge="1" parent="1" target="mm4bTncKj626fs8VlmGL-15">
          <mxGeometry width="50" height="50" relative="1" as="geometry">
            <mxPoint x="-140" y="200" as="sourcePoint" />
            <mxPoint x="-90" y="150" as="targetPoint" />
          </mxGeometry>
        </mxCell>
        <mxCell id="mm4bTncKj626fs8VlmGL-56" value="" style="endArrow=classic;html=1;rounded=0;entryX=0;entryY=0;entryDx=0;entryDy=0;" edge="1" parent="1" target="mm4bTncKj626fs8VlmGL-16">
          <mxGeometry width="50" height="50" relative="1" as="geometry">
            <mxPoint x="-140" y="200" as="sourcePoint" />
            <mxPoint x="-90" y="150" as="targetPoint" />
          </mxGeometry>
        </mxCell>
        <mxCell id="mm4bTncKj626fs8VlmGL-58" value="" style="endArrow=classic;html=1;rounded=0;entryX=0;entryY=0;entryDx=0;entryDy=0;" edge="1" parent="1" target="mm4bTncKj626fs8VlmGL-17">
          <mxGeometry width="50" height="50" relative="1" as="geometry">
            <mxPoint x="-140" y="200" as="sourcePoint" />
            <mxPoint x="-90" y="150" as="targetPoint" />
          </mxGeometry>
        </mxCell>
        <mxCell id="mm4bTncKj626fs8VlmGL-60" value="" style="endArrow=classic;html=1;rounded=0;exitX=1;exitY=0.3333333333333333;exitDx=0;exitDy=0;exitPerimeter=0;" edge="1" parent="1" source="mm4bTncKj626fs8VlmGL-6" target="mm4bTncKj626fs8VlmGL-21">
          <mxGeometry width="50" height="50" relative="1" as="geometry">
            <mxPoint x="-130" y="510" as="sourcePoint" />
            <mxPoint x="-90" y="450" as="targetPoint" />
          </mxGeometry>
        </mxCell>
        <mxCell id="mm4bTncKj626fs8VlmGL-61" value="" style="endArrow=classic;html=1;rounded=0;entryX=0.308;entryY=0.05;entryDx=0;entryDy=0;entryPerimeter=0;" edge="1" parent="1" target="mm4bTncKj626fs8VlmGL-24">
          <mxGeometry width="50" height="50" relative="1" as="geometry">
            <mxPoint x="-170" y="650" as="sourcePoint" />
            <mxPoint x="-30" y="1240" as="targetPoint" />
            <Array as="points">
              <mxPoint x="-170" y="650" />
            </Array>
          </mxGeometry>
        </mxCell>
        <mxCell id="mm4bTncKj626fs8VlmGL-63" value="" style="endArrow=classic;html=1;rounded=0;entryX=0.408;entryY=1;entryDx=0;entryDy=0;entryPerimeter=0;" edge="1" parent="1" target="mm4bTncKj626fs8VlmGL-22">
          <mxGeometry width="50" height="50" relative="1" as="geometry">
            <mxPoint x="-160" y="1120" as="sourcePoint" />
            <mxPoint x="-110" y="1070" as="targetPoint" />
          </mxGeometry>
        </mxCell>
        <mxCell id="mm4bTncKj626fs8VlmGL-65" value="" style="endArrow=classic;html=1;rounded=0;" edge="1" parent="1" target="mm4bTncKj626fs8VlmGL-25">
          <mxGeometry width="50" height="50" relative="1" as="geometry">
            <mxPoint x="-160" y="1120" as="sourcePoint" />
            <mxPoint x="-110" y="1070" as="targetPoint" />
          </mxGeometry>
        </mxCell>
        <mxCell id="mm4bTncKj626fs8VlmGL-66" value="" style="endArrow=classic;html=1;rounded=0;entryX=0;entryY=0;entryDx=0;entryDy=0;" edge="1" parent="1" target="mm4bTncKj626fs8VlmGL-23">
          <mxGeometry width="50" height="50" relative="1" as="geometry">
            <mxPoint x="-140" y="200" as="sourcePoint" />
            <mxPoint x="-90" y="150" as="targetPoint" />
          </mxGeometry>
        </mxCell>
      </root>
    </mxGraphModel>
  </diagram>
</mxfile>
